<svg width="47" height="20" viewBox="0 0 47 20" fill="none" xmlns="http://www.w3.org/2000/svg">
<path d="M0 0H30V20H0V0Z" fill="#0066FF"/>
<path d="M30 0H45V20H30V0Z" fill="white"/>
<path d="M36.8691 13.1094C36.6543 13.4258 36.3945 13.6738 36.0898 13.8535C35.7891 14.0332 35.459 14.123 35.0996 14.123C34.7715 14.123 34.4707 14.0723 34.1973 13.9707C33.9238 13.8691 33.6895 13.709 33.4941 13.4902C33.2988 13.2676 33.1465 12.9863 33.0371 12.6465C32.9316 12.3027 32.8789 11.8906 32.8789 11.4102V7.66016H34.5078V11.4219C34.5078 11.6797 34.5254 11.8965 34.5605 12.0723C34.5996 12.248 34.6602 12.3906 34.7422 12.5C34.8242 12.6055 34.9316 12.6816 35.0645 12.7285C35.1973 12.7754 35.3594 12.7988 35.5508 12.7988C35.875 12.7988 36.1387 12.7383 36.3418 12.6172C36.5449 12.4922 36.6992 12.3223 36.8047 12.1074V7.66016H38.4395V14H36.9629L36.8691 13.1094ZM42.9336 9.64062L44.3281 7.66016H46.0801L43.9531 10.7715L46.1562 14H44.3984L42.9395 11.9258L41.4922 14H39.7285L41.9316 10.7715L39.8105 7.66016H41.5625L42.9336 9.64062Z" fill="#0066FF"/>
<path d="M10.5469 11.1113C10.5195 11.7051 10.3594 12.2305 10.0664 12.6875C9.77344 13.1406 9.36133 13.4922 8.83008 13.7422C8.30273 13.9922 7.69922 14.1172 7.01953 14.1172C5.89844 14.1172 5.01562 13.752 4.37109 13.0215C3.72656 12.291 3.4043 11.2598 3.4043 9.92773V9.50586C3.4043 8.66992 3.54883 7.93945 3.83789 7.31445C4.13086 6.68555 4.55078 6.20117 5.09766 5.86133C5.64453 5.51758 6.27734 5.3457 6.99609 5.3457C8.03125 5.3457 8.86328 5.61914 9.49219 6.16602C10.1211 6.70898 10.4785 7.45898 10.5645 8.41602H8.51367C8.49805 7.89648 8.36719 7.52344 8.12109 7.29688C7.875 7.07031 7.5 6.95703 6.99609 6.95703C6.48438 6.95703 6.10938 7.14844 5.87109 7.53125C5.63281 7.91406 5.50781 8.52539 5.49609 9.36523V9.96875C5.49609 10.8789 5.60938 11.5293 5.83594 11.9199C6.06641 12.3105 6.46094 12.5059 7.01953 12.5059C7.49219 12.5059 7.85352 12.3945 8.10352 12.1719C8.35352 11.9492 8.48633 11.5957 8.50195 11.1113H10.5469ZM14.6895 10.9883H13.5762V14H11.5195V5.46875H14.877C15.8887 5.46875 16.6797 5.69336 17.25 6.14258C17.8203 6.5918 18.1055 7.22656 18.1055 8.04688C18.1055 8.64062 17.9844 9.13281 17.7422 9.52344C17.5039 9.91406 17.1289 10.2305 16.6172 10.4727L18.3984 13.9121V14H16.1953L14.6895 10.9883ZM13.5762 9.40039H14.877C15.2676 9.40039 15.5605 9.29883 15.7559 9.0957C15.9551 8.88867 16.0547 8.60156 16.0547 8.23438C16.0547 7.86719 15.9551 7.58008 15.7559 7.37305C15.5566 7.16211 15.2637 7.05664 14.877 7.05664H13.5762V9.40039ZM26.332 12.9453C26.0156 13.2969 25.5527 13.5801 24.9434 13.7949C24.334 14.0098 23.666 14.1172 22.9395 14.1172C21.8223 14.1172 20.9297 13.7754 20.2617 13.0918C19.5938 12.4082 19.2363 11.457 19.1895 10.2383L19.1836 9.5C19.1836 8.66016 19.332 7.92773 19.6289 7.30273C19.9258 6.67383 20.3496 6.19141 20.9004 5.85547C21.4551 5.51562 22.0957 5.3457 22.8223 5.3457C23.8848 5.3457 24.709 5.58984 25.2949 6.07812C25.8848 6.5625 26.2285 7.28711 26.3262 8.25195H24.3457C24.2754 7.77539 24.123 7.43555 23.8887 7.23242C23.6543 7.0293 23.3223 6.92773 22.8926 6.92773C22.377 6.92773 21.9785 7.14648 21.6973 7.58398C21.416 8.02148 21.2734 8.64648 21.2695 9.45898V9.97461C21.2695 10.8262 21.4141 11.4668 21.7031 11.8965C21.9961 12.3223 22.4551 12.5352 23.0801 12.5352C23.6152 12.5352 24.0137 12.416 24.2754 12.1777V10.8535H22.8457V9.44141H26.332V12.9453Z" fill="white"/>
</svg>
